<svg xmlns="http://www.w3.org/2000/svg" role="img" viewBox="126.67 54.42 250.40 250.90"><path fill="#93D500" d="M226.89 137.615h-.137l-35.805.001c.006.176.012.352.02.526.015.338.039.675.06 1.013.01.145.016.29.027.433.028.391.062.781.097 1.169.008.088.016.176.025.262.041.433.088.865.14 1.295.003.043.007.084.013.125.056.464.116.929.184 1.391 0 .005.001.012.003.017.412 2.865 1.031 5.703 1.856 8.493.003.012.008.023.01.035.129.439.266.876.405 1.31.009.026.017.051.025.077.008.026.016.052.025.077.127.393.261.784.396 1.177.035.098.069.198.105.297.12.339.243.679.369 1.017.059.153.116.306.174.46.109.281.218.559.328.84.084.21.171.421.259.632.09.219.182.437.275.657.115.268.233.533.351.8.071.159.142.318.213.475.146.32.296.64.448.957.05.102.097.205.148.307.176.366.356.729.538 1.089.031.056.057.111.086.166.206.399.415.798.63 1.193.009.017.02.034.028.053.045.082.095.161.14.243l30.697-18.492.114-.068c-1.214-2.554-1.968-5.269-2.247-8.027z"/><path fill="#93D500" d="M192.644 154.097l.011.032 1.16-.365z"/><path fill="#4D5A31" d="M235.723 154.115l-.087.087-25.317 25.318c.13.122.259.244.392.362.236.214.477.427.716.636.124.11.246.221.369.327.287.248.576.49.865.732.079.066.156.13.234.195.325.269.656.533.987.795.042.033.085.067.127.101.359.283.722.557 1.087.834.016.01.03.02.041.03 1.525 1.14 3.105 2.207 4.736 3.202.056.035.112.068.169.103.31.185.62.37.933.551.191.109.382.218.573.326.18.104.36.205.543.305.328.181.659.359.99.533.045.024.091.049.137.073.921.481 1.857.929 2.8 1.359l.898-2.181 12.734-30.923.047-.115c-1.387-.742-2.72-1.623-3.974-2.65z"/><path fill="#6BA43A" d="M233.086 151.593c-.273-.305-.534-.616-.789-.931-.226-.279-.445-.561-.657-.848-.242-.328-.479-.658-.703-.995-.226-.338-.448-.679-.657-1.025l-30.735 18.515c.472.784.965 1.548 1.467 2.303.017.026.033.053.05.079.006.009.012.019.018.028.017.025.032.051.048.076.002.003.003.005.005.008.04.06.082.12.123.18.002.004.005.007.007.011.001.002.002.003.003.005.534.79 1.082 1.566 1.647 2.323.012.016.025.032.037.049.012.016.024.031.036.047.245.326.492.651.746.973.033.042.066.084.101.125.261.333.526.662.795.987.063.077.129.154.192.233.244.291.486.579.735.867.106.122.216.246.324.368.211.241.421.48.638.718.118.13.24.261.362.391.055.059.109.118.164.177.158.17.315.341.475.509.064.067.13.133.195.2.28.292.562.583.85.871l25.354-25.355c-.289-.29-.561-.589-.831-.889z"/><path fill="#4D5A31" d="M266.695 154.102c-.279.225-.561.445-.847.656l.063.105 18.486 30.687c.856-.559 1.702-1.135 2.529-1.741 1.789-1.319 3.521-2.749 5.189-4.289l-25.32-25.319-.1-.099z"/><path fill="#93D500" d="M282.061 187.012c.014-.008.027-.015.041-.023l-.001-.001c-.014.008-.027.016-.04.024zm-.018.011v-.001l-.001.001z"/><path fill="#93D500" d="M282.101 186.988l.001.001c.081-.045.162-.087.242-.135l-.005-.008c-.08.047-.159.095-.238.142zm-.051.03l.011-.006h-.001zm-.008.005l.001-.001-.045-.076zm.019-.011c.014-.007.028-.014.041-.022v-.001c-.014.008-.028.015-.041.023zm-.034.02l.01-.006zm.015-.009l-.005.003.006-.003z"/><path fill="#93D500" d="M282.05 187.018c-.002.001-.005.003-.007.004v.001c.006-.003.012-.007.018-.01v-.001c-.004.002-.008.004-.011.006zm.052-.028c.08-.047.162-.088.241-.136-.08.048-.161.09-.241.136zm.241-.136l-.005-.008zm-.326.184l.001-.001h.001zm.009-.005l-.007.004.008-.005h-.001zm-.316-1.23l-.627-1.041-17.256-28.644c-.349.21-.706.4-1.063.592-.359.193-.723.374-1.09.548-3.315 1.573-6.904 2.376-10.497 2.376-2.354 0-4.707-.34-6.982-1.019-.388-.116-.766-.268-1.149-.403s-.771-.252-1.148-.407l-12.725 30.902-.499 1.212-.427 1.037-.002.005c.033.014.066.025.099.038.035.014.07.026.104.04h.001c.001 0 .002.001.002.001.009.004.017.006.025.009.301.122.603.229.905.346.379.147.757.296 1.136.435.193.071.386.153.579.222h.001c3.986 1.408 8.111 2.393 12.305 2.945.164.02.327.043.492.065.171.02.344.037.516.056.323.037.646.074.97.106.08.006.161.013.24.021.398.037.795.071 1.191.099.135.01.271.016.405.025.349.023.696.045 1.044.061.213.012.426.018.64.026.276.01.551.021.829.029.397.01.799.013 1.199.015.095 0 .189.002.283.004 3.351 0 6.7-.279 10.011-.834.056-.008.111-.018.167-.026.35-.061.7-.126 1.051-.191.199-.039.4-.076.597-.115.204-.042.41-.085.614-.128.342-.072.683-.145 1.023-.225.061-.013.122-.026.185-.042 5.036-1.174 9.899-2.991 14.467-5.394l.002-.001c.299-.158.591-.337.889-.5.355-.194.708-.395 1.061-.597.244-.14.491-.269.734-.413.001 0 .001-.001.001-.001.003-.002.005-.003.008-.005h.001c.003-.002.007-.004.01-.006.002-.001.004-.002.005-.003l-.044-.076.045.076c.002-.001.005-.003.007-.004.003-.002.007-.004.01-.006.014-.008.027-.016.04-.024.079-.047.158-.095.237-.142l-.622-1.044zm-45.973-69.538c.279-.226.561-.445.848-.657l-.063-.105-18.485-30.687c-.859.561-1.707 1.138-2.535 1.746-1.788 1.316-3.518 2.745-5.183 4.283l25.32 25.32.098.1z"/><path fill="#4D5A31" d="M208.563 92.53c-.288.288-.56.586-.841.878-.281.292-.567.582-.841.879-1.87 2.025-3.58 4.145-5.122 6.348-.074.104-.149.212-.221.317-.174.253-.346.506-.515.76-.176.264-.352.531-.522.798-.064.097-.128.196-.189.293-5.823 9.136-8.944 19.498-9.364 29.948-.016.405-.024.811-.032 1.216-.008.405-.021.811-.021 1.216l35.859-.001c0-.406.038-.81.058-1.216.02-.406.026-.812.067-1.216.464-4.669 2.266-9.229 5.408-13.059.255-.311.544-.603.817-.904.273-.301.526-.613.816-.903L208.563 92.53zm73.988-8.901c-.049-.03-.099-.06-.148-.089-.315-.193-.633-.379-.952-.566-.185-.107-.369-.211-.555-.317-.188-.104-.372-.209-.56-.312-.324-.178-.648-.352-.974-.525-.051-.026-.101-.054-.153-.08-2.102-1.1-4.262-2.068-6.467-2.907-.056-.024-.115-.045-.171-.066-.48-.18-.962-.358-1.447-.527-3.916-1.368-7.967-2.328-12.083-2.868-.168-.024-.336-.047-.504-.068-.169-.021-.337-.038-.504-.056-.324-.038-.649-.074-.974-.106-.09-.008-.181-.015-.273-.024-.386-.036-.773-.07-1.158-.097-.15-.011-.301-.019-.452-.028-.331-.022-.665-.045-.996-.059-.177-.009-.353-.014-.528-.02l-.002 35.805v.14c1.844.191 3.672.584 5.446 1.186l26.454-26.454c-.985-.679-1.978-1.341-2.999-1.962z"/><path fill="#6BA43A" d="M220.722 84.561l-.627-1.042.627 1.042zm-.632-1.048l.005.006zM250 74.887c-.405.008-.811.009-1.216.026-2.537.102-5.069.362-7.58.781-.055.009-.11.018-.166.027-.352.061-.701.125-1.051.191-.198.037-.398.075-.596.114-.206.041-.412.084-.618.129-.341.071-.682.145-1.021.224-.062.013-.123.029-.187.042-5.035 1.174-9.901 2.992-14.469 5.396h-.001c-.298.158-.589.337-.886.499-.355.194-.708.395-1.06.598-.262.151-.528.289-.788.445-.003.002-.006.003-.009.005 0 0-.001 0-.001.001-.018.011-.037.02-.055.031-.068.041-.138.075-.206.116l.004.007.628 1.042 17.882 29.686c.349-.21.706-.401 1.063-.593.359-.193.723-.375 1.089-.549 2.554-1.216 5.268-1.97 8.027-2.25.405-.041.81-.075 1.216-.096.405-.02.81-.041 1.216-.042l.002-35.858c-.406.002-.811.019-1.217.028z"/><path fill="#4D5A31" d="M311.464 132.218c-.016-.322-.036-.644-.058-.966-.01-.16-.019-.32-.032-.483-.027-.378-.059-.757-.094-1.136-.008-.098-.017-.196-.026-.294-.041-.423-.087-.846-.135-1.268-.005-.034-.008-.068-.012-.102-.002-.016-.004-.033-.006-.049-.056-.456-.116-.912-.181-1.367-.001-.014-.003-.03-.006-.042-.413-2.859-1.03-5.692-1.853-8.478-.006-.019-.011-.037-.017-.054-.13-.433-.262-.863-.399-1.293-.018-.056-.037-.113-.055-.17-.127-.388-.256-.774-.39-1.16-.038-.104-.074-.208-.11-.313-.118-.334-.24-.668-.364-1-.06-.159-.12-.318-.182-.475-.105-.276-.213-.552-.322-.825-.088-.219-.175-.435-.265-.65-.088-.214-.178-.426-.268-.639-.118-.273-.237-.545-.358-.817-.068-.152-.136-.306-.206-.46-.148-.323-.3-.647-.454-.97-.047-.098-.093-.196-.141-.294-.178-.368-.36-.736-.545-1.102-.027-.05-.053-.101-.08-.152-.207-.403-.418-.806-.634-1.204-.008-.014-.015-.029-.023-.043-1.045-1.922-2.191-3.78-3.432-5.567l-26.463 26.463c.602 1.774.994 3.601 1.185 5.444H311.485c-.007-.18-.012-.358-.021-.534z"/><path fill="#6BA43A" d="M275.678 135.182c0 .406-.038.81-.058 1.216-.02.406-.026.812-.066 1.216-.464 4.669-2.265 9.23-5.407 13.061-.255.311-.544.603-.817.904-.272.301-.526.613-.816.903l25.356 25.355c.288-.288.56-.586.841-.879.281-.293.567-.582.841-.879 1.876-2.032 3.591-4.158 5.136-6.368.062-.087.12-.174.18-.261.189-.271.372-.545.556-.818.161-.244.323-.489.481-.736.078-.118.155-.24.231-.359 5.815-9.131 8.927-19.483 9.345-29.924.016-.405.024-.811.032-1.216.008-.405.021-.81.021-1.216h-35.856z"/><path fill="#424143" d="M322.187 64.211c-6.56-6.56-17.197-6.56-23.757 0-5.234 5.233-6.279 13.055-3.163 19.337l-36.592 36.593c-6.283-3.115-14.104-2.07-19.339 3.162-6.561 6.56-6.559 17.198-.001 23.758 6.562 6.561 17.199 6.559 23.76-.001 5.233-5.233 6.278-13.055 3.161-19.338l36.592-36.591c6.283 3.116 14.104 2.07 19.338-3.163 6.56-6.559 6.56-17.197.001-23.757z"/><g><path d="M134.391 300.709v-22.012h3.862v22.012h-3.862zm33.296 0l-11.485-15.742v15.742h-3.861v-22.012h3.96l11.254 15.246v-15.246h3.86v22.012h-3.728zm17.818 0v-22.012h3.861v22.012h-3.861zm23.197 0v-18.613h-6.667v-3.399h17.194v3.399h-6.665v18.613h-3.862zm23.196 0v-22.012h3.861v22.012h-3.861zm33.397 0l-1.619-4.258h-10.098l-1.618 4.258h-4.389l8.648-22.012h4.817l8.646 22.012h-4.387zm-6.667-18.151l-3.961 10.495h7.92l-3.959-10.495zm25.935 18.151v-18.613h-6.668v-3.399h17.195v3.399h-6.665v18.613h-3.862zm23.198 0v-22.012h3.861v22.012h-3.861zm24.321 0l-8.648-22.012h4.39l6.667 17.787 6.667-17.787h4.387l-8.645 22.012h-4.818zm25.24 0v-22.012h15.081v3.399h-11.219v5.676h10.989v3.399h-10.989v6.138h11.219v3.4h-15.081z" fill="#6BA43A"/><path d="M131.597 246.726c0-11.906 8.707-20.435 20.672-20.435 11.905 0 20.612 8.53 20.612 20.435s-8.707 20.436-20.612 20.436c-11.965 0-20.672-8.53-20.672-20.436zm32.637 0c0-7.404-4.679-12.972-11.964-12.972-7.345 0-12.025 5.568-12.025 12.972 0 7.344 4.679 12.972 12.025 12.972 7.285 0 11.964-5.627 11.964-12.972zm13.086 19.724v-39.508h18.482c8.587 0 13.268 5.804 13.268 12.735 0 6.871-4.739 12.676-13.268 12.676h-10.07v14.097h-8.412zm23.16-26.772c0-3.317-2.547-5.331-5.864-5.331h-8.884v10.602h8.884c3.318 0 5.864-2.013 5.864-5.271zm12.376 26.772v-39.508h27.958v7.404h-19.546v8.292H240.4v7.404h-19.132v9.003h19.546v7.404h-27.958zm60.295 0l-18.834-25.766v25.766h-8.413v-39.508h8.649l18.302 24.819v-24.819h8.411v39.508h-8.115zm43.58 0l-2.489-6.693h-16.939l-2.487 6.693h-9.537l15.223-39.508h10.545l15.221 39.508h-9.537zm-10.959-31.096l-6.159 17h12.322l-6.163-17zm22.683 31.096v-39.508h18.481c8.587 0 13.268 5.804 13.268 12.735 0 6.871-4.74 12.676-13.268 12.676h-10.07v14.097h-8.411zm23.16-26.772c0-3.317-2.547-5.331-5.865-5.331h-8.885v10.602h8.885c3.318 0 5.865-2.013 5.865-5.271zm12.376 26.772v-39.508h8.412v39.508h-8.412z" fill="#424143"/></g></svg>